HIERARCHY
ROOT Hips
{
	OFFSET 0.000000 71.427986 0.000000
	CHANNELS 6 Xposition Yposition Zposition Xrotation Yrotation Zrotation
	JOINT Pelvis
	{
		OFFSET 0.000000 0.000000 0.000000
		CHANNELS 3 Xrotation Yrotation Zrotation
		JOINT LeftUpLeg
		{
			OFFSET 6.797100 -2.508499 -1.318700
			CHANNELS 3 Xrotation Yrotation Zrotation
			JOINT LeftLeg
			{
				OFFSET 0.069008 -29.241863 0.690200
				CHANNELS 3 Xrotation Yrotation Zrotation
				JOINT LeftFoot
				{
					OFFSET -0.069008 -29.568123 -0.266800
					CHANNELS 3 Xrotation Yrotation Zrotation
					JOINT LeftToeBase
					{
						OFFSET 3.145500 -8.631000 16.059900
						CHANNELS 3 Xrotation Yrotation Zrotation
						End Site
						{
							OFFSET 0.000000 18.501587 0.000000
						}
					}
				}
			}
			JOINT Left_ShortSleeve
			{
				OFFSET 0.265923 -10.480953 1.153800
				CHANNELS 3 Xrotation Yrotation Zrotation
				End Site
				{
					OFFSET 1.725763 19.823879 0.000000
				}
			}
		}
		JOINT RightUpLeg
		{
			OFFSET -6.797100 -2.508499 -1.318700
			CHANNELS 3 Xrotation Yrotation Zrotation
			JOINT RightLeg
			{
				OFFSET -0.082453 -29.241932 0.688000
				CHANNELS 3 Xrotation Yrotation Zrotation
				JOINT RightFoot
				{
					OFFSET 0.082453 -29.568058 -0.264600
					CHANNELS 3 Xrotation Yrotation Zrotation
					JOINT RightToeBase
					{
						OFFSET -3.115300 -8.682800 16.113400
						CHANNELS 3 Xrotation Yrotation Zrotation
						End Site
						{
							OFFSET 0.000000 18.567114 0.000000
						}
					}
				}
			}
			JOINT Right_ShortSleeve
			{
				OFFSET -0.265923 -10.480953 1.153800
				CHANNELS 3 Xrotation Yrotation Zrotation
				End Site
				{
					OFFSET -1.725766 19.823910 0.000000
				}
			}
		}
	}
	JOINT Spine
	{
		OFFSET 0.000000 13.368103 0.470500
		CHANNELS 3 Xrotation Yrotation Zrotation
		JOINT Spine1
		{
			OFFSET 0.147000 13.837402 0.538800
			CHANNELS 3 Xrotation Yrotation Zrotation
			JOINT Spine2
			{
				OFFSET 0.168000 16.242897 -1.435500
				CHANNELS 3 Xrotation Yrotation Zrotation
				JOINT Neck
				{
					OFFSET 0.217200 18.631500 -1.679100
					CHANNELS 3 Xrotation Yrotation Zrotation
					JOINT Head
					{
						OFFSET 0.000000 6.599396 1.385900
						CHANNELS 3 Xrotation Yrotation Zrotation
						JOINT Hat
						{
							OFFSET -0.532200 27.220596 -10.096100
							CHANNELS 3 Xrotation Yrotation Zrotation
							End Site
							{
								OFFSET 0.000000 22.029861 0.000000
							}
						}
						JOINT HairD
						{
							OFFSET -10.777400 17.437393 -1.325900
							CHANNELS 3 Xrotation Yrotation Zrotation
							JOINT HairD1
							{
								OFFSET -3.290299 -11.051193 1.062200
								CHANNELS 3 Xrotation Yrotation Zrotation
								End Site
								{
									OFFSET 0.000000 11.579437 0.000000
								}
							}
						}
						JOINT HairB
						{
							OFFSET -10.777400 17.437393 1.467900
							CHANNELS 3 Xrotation Yrotation Zrotation
							JOINT HairB1
							{
								OFFSET -1.561200 -12.956299 3.590200
								CHANNELS 3 Xrotation Yrotation Zrotation
								End Site
								{
									OFFSET 0.000000 13.534866 0.000000
								}
							}
						}
						JOINT HairA
						{
							OFFSET 9.713100 17.437393 1.467900
							CHANNELS 3 Xrotation Yrotation Zrotation
							JOINT HairA1
							{
								OFFSET 1.561200 -12.956299 3.590200
								CHANNELS 3 Xrotation Yrotation Zrotation
								End Site
								{
									OFFSET 0.000000 13.534866 0.000000
								}
							}
						}
						JOINT HairC
						{
							OFFSET 9.713100 17.437393 -1.325900
							CHANNELS 3 Xrotation Yrotation Zrotation
							JOINT HairC1
							{
								OFFSET 3.290300 -11.051193 1.062200
								CHANNELS 3 Xrotation Yrotation Zrotation
								End Site
								{
									OFFSET 0.000000 11.579437 0.000000
								}
							}
						}
					}
				}
				JOINT LeftShoulder
				{
					OFFSET 5.101800 15.108002 -2.763700
					CHANNELS 3 Xrotation Yrotation Zrotation
					JOINT LeftArm
					{
						OFFSET 9.825497 2.506317 -1.597400
						CHANNELS 3 Xrotation Yrotation Zrotation
						JOINT LeftForeArm
						{
							OFFSET 21.966244 0.000000 0.000000
							CHANNELS 3 Xrotation Yrotation Zrotation
							JOINT LeftHand
							{
								OFFSET 33.879036 0.000000 0.000000
								CHANNELS 3 Xrotation Yrotation Zrotation
								JOINT LeftHandThumb1
								{
									OFFSET 6.715286 -2.359680 3.363841
									CHANNELS 3 Xrotation Yrotation Zrotation
									JOINT LeftHandThumb2
									{
										OFFSET 2.507072 -1.447464 1.447461
										CHANNELS 3 Xrotation Yrotation Zrotation
										JOINT LeftHandThumb3
										{
											OFFSET 2.898338 -1.673355 1.673357
											CHANNELS 3 Xrotation Yrotation Zrotation
											End Site
											{
												OFFSET -0.295959 3.727692 -0.131651
											}
										}
									}
								}
								JOINT LeftHandIndex1
								{
									OFFSET 14.190811 -0.254547 3.840278
									CHANNELS 3 Xrotation Yrotation Zrotation
									JOINT LeftHandIndex2
									{
										OFFSET 3.551727 0.000000 -0.000000
										CHANNELS 3 Xrotation Yrotation Zrotation
										JOINT LeftHandIndex3
										{
											OFFSET 2.894196 0.000000 0.000000
											CHANNELS 3 Xrotation Yrotation Zrotation
											End Site
											{
												OFFSET -1.000603 2.690872 0.366626
											}
										}
									}
								}
								JOINT LeftHandMiddle1
								{
									OFFSET 13.776489 0.000000 0.000000
									CHANNELS 3 Xrotation Yrotation Zrotation
									JOINT LeftHandMiddle2
									{
										OFFSET 3.438232 0.000000 0.000000
										CHANNELS 3 Xrotation Yrotation Zrotation
										JOINT LeftHandMiddle3
										{
											OFFSET 3.691551 0.000000 0.000000
											CHANNELS 3 Xrotation Yrotation Zrotation
											End Site
											{
												OFFSET -1.082298 3.499527 0.457670
											}
										}
									}
								}
								JOINT LeftHandRing1
								{
									OFFSET 13.966164 -0.268127 -3.067488
									CHANNELS 3 Xrotation Yrotation Zrotation
									JOINT LeftHandRing2
									{
										OFFSET 3.162567 0.000000 0.000000
										CHANNELS 3 Xrotation Yrotation Zrotation
										JOINT LeftHandRing3
										{
											OFFSET 3.324348 0.000000 0.000000
											CHANNELS 3 Xrotation Yrotation Zrotation
											End Site
											{
												OFFSET -0.861900 3.184998 0.405154
											}
										}
									}
								}
								JOINT LeftHandPinky1
								{
									OFFSET 13.131393 -0.168503 -5.746925
									CHANNELS 3 Xrotation Yrotation Zrotation
									JOINT LeftHandPinky2
									{
										OFFSET 2.849182 0.000000 0.000000
										CHANNELS 3 Xrotation Yrotation Zrotation
										JOINT LeftHandPinky3
										{
											OFFSET 2.805038 0.000000 0.000000
											CHANNELS 3 Xrotation Yrotation Zrotation
											End Site
											{
												OFFSET -0.882500 2.642609 0.325652
											}
										}
									}
								}
							}
							JOINT Left_Sleeve
							{
								OFFSET 6.592125 -0.646545 0.805568
								CHANNELS 3 Xrotation Yrotation Zrotation
								End Site
								{
									OFFSET -0.000179 20.275787 -0.000000
								}
							}
						}
					}
				}
				JOINT RightShoulder
				{
					OFFSET -5.731700 15.108002 -2.763700
					CHANNELS 3 Xrotation Yrotation Zrotation
					JOINT RightArm
					{
						OFFSET -9.825497 2.506317 -1.597400
						CHANNELS 3 Xrotation Yrotation Zrotation
						JOINT RightForeArm
						{
							OFFSET -21.966242 0.000000 0.000000
							CHANNELS 3 Xrotation Yrotation Zrotation
							JOINT RightHand
							{
								OFFSET -33.879032 0.000000 0.000000
								CHANNELS 3 Xrotation Yrotation Zrotation
								JOINT RightHandThumb1
								{
									OFFSET -6.715286 -2.359680 3.363841
									CHANNELS 3 Xrotation Yrotation Zrotation
									JOINT RightHandThumb2
									{
										OFFSET -2.507072 -1.447464 1.447461
										CHANNELS 3 Xrotation Yrotation Zrotation
										JOINT RightHandThumb3
										{
											OFFSET -2.898338 -1.673355 1.673357
											CHANNELS 3 Xrotation Yrotation Zrotation
											End Site
											{
												OFFSET 0.295959 3.727692 -0.131651
											}
										}
									}
								}
								JOINT RightHandIndex1
								{
									OFFSET -14.190811 -0.254547 3.840278
									CHANNELS 3 Xrotation Yrotation Zrotation
									JOINT RightHandIndex2
									{
										OFFSET -3.551727 0.000000 -0.000000
										CHANNELS 3 Xrotation Yrotation Zrotation
										JOINT RightHandIndex3
										{
											OFFSET -2.894196 0.000000 0.000000
											CHANNELS 3 Xrotation Yrotation Zrotation
											End Site
											{
												OFFSET 1.000603 2.690872 0.366626
											}
										}
									}
								}
								JOINT RightHandMiddle1
								{
									OFFSET -13.776489 0.000000 0.000000
									CHANNELS 3 Xrotation Yrotation Zrotation
									JOINT RightHandMiddle2
									{
										OFFSET -3.438232 0.000000 0.000000
										CHANNELS 3 Xrotation Yrotation Zrotation
										JOINT RightHandMiddle3
										{
											OFFSET -3.691551 0.000000 0.000000
											CHANNELS 3 Xrotation Yrotation Zrotation
											End Site
											{
												OFFSET 1.082298 3.499527 0.457670
											}
										}
									}
								}
								JOINT RightHandRing1
								{
									OFFSET -13.966164 -0.268127 -3.067488
									CHANNELS 3 Xrotation Yrotation Zrotation
									JOINT RightHandRing2
									{
										OFFSET -3.162567 0.000000 0.000000
										CHANNELS 3 Xrotation Yrotation Zrotation
										JOINT RightHandRing3
										{
											OFFSET -3.324348 0.000000 0.000000
											CHANNELS 3 Xrotation Yrotation Zrotation
											End Site
											{
												OFFSET 0.861900 3.184998 0.405154
											}
										}
									}
								}
								JOINT RightHandPinky1
								{
									OFFSET -13.131393 -0.168503 -5.746925
									CHANNELS 3 Xrotation Yrotation Zrotation
									JOINT RightHandPinky2
									{
										OFFSET -2.849182 0.000000 0.000000
										CHANNELS 3 Xrotation Yrotation Zrotation
										JOINT RightHandPinky3
										{
											OFFSET -2.805038 0.000000 0.000000
											CHANNELS 3 Xrotation Yrotation Zrotation
											End Site
											{
												OFFSET 0.882500 2.642609 0.325652
											}
										}
									}
								}
							}
							JOINT Right_Sleeve
							{
								OFFSET -6.592125 -0.646545 0.805568
								CHANNELS 3 Xrotation Yrotation Zrotation
								End Site
								{
									OFFSET 0.000179 20.275787 -0.000000
								}
							}
						}
					}
				}
				JOINT Bind_Right_JacketString
				{
					OFFSET -3.534800 11.969597 7.200700
					CHANNELS 3 Xrotation Yrotation Zrotation
					JOINT Bind_Right_JacketString1
					{
						OFFSET -0.319900 -6.102600 2.794100
						CHANNELS 3 Xrotation Yrotation Zrotation
						End Site
						{
							OFFSET 0.000000 6.719452 0.000000
						}
					}
				}
				JOINT Bind_Left_JacketString
				{
					OFFSET 2.904800 11.969597 7.200700
					CHANNELS 3 Xrotation Yrotation Zrotation
					JOINT Bind_Left_JacketString1
					{
						OFFSET 0.364800 -5.904503 3.186800
						CHANNELS 3 Xrotation Yrotation Zrotation
						End Site
						{
							OFFSET 0.000000 6.719513 0.000000
						}
					}
				}
				JOINT HairE
				{
					OFFSET 5.915200 17.612701 -11.592200
					CHANNELS 3 Xrotation Yrotation Zrotation
					JOINT HairE1
					{
						OFFSET 0.289200 -7.171898 -1.284500
						CHANNELS 3 Xrotation Yrotation Zrotation
						End Site
						{
							OFFSET 0.000000 7.291756 0.000000
						}
					}
				}
				JOINT HairF
				{
					OFFSET -0.864800 17.612701 -11.592200
					CHANNELS 3 Xrotation Yrotation Zrotation
					JOINT HairF1
					{
						OFFSET 0.000000 -14.087097 -2.127501
						CHANNELS 3 Xrotation Yrotation Zrotation
						End Site
						{
							OFFSET 0.000000 14.246841 0.000000
						}
					}
				}
				JOINT HairG
				{
					OFFSET -8.087700 17.612701 -11.592200
					CHANNELS 3 Xrotation Yrotation Zrotation
					JOINT HairG1
					{
						OFFSET -0.293600 -6.081398 -0.910100
						CHANNELS 3 Xrotation Yrotation Zrotation
						End Site
						{
							OFFSET 0.000000 6.156120 0.000000
						}
					}
				}
			}
		}
	}
	JOINT Pouch
	{
		OFFSET 0.000000 4.394501 10.847300
		CHANNELS 3 Xrotation Yrotation Zrotation
		End Site
		{
			OFFSET 0.000000 21.880577 0.000000
		}
	}
	JOINT Bag
	{
		OFFSET -13.229000 4.813004 -0.593300
		CHANNELS 3 Xrotation Yrotation Zrotation
		End Site
		{
			OFFSET 0.000000 21.880577 0.000000
		}
	}
	JOINT OccupyGuyFacialAnim_Joint
	{
		OFFSET 1.000000 -70.206398 -1.655000
		CHANNELS 3 Xrotation Yrotation Zrotation
		End Site
		{
			OFFSET 0.000000 21.880577 0.000000
		}
	}
}
MOTION
Frames: 4
Frame Time: 0.033333
-0.065064 70.391823 1.366560 3.816396 -3.698974 -0.216791 -0.000000 -0.000000 0.000000 -7.960021 12.701309 9.431071 10.084803 4.856365 2.169685 -5.272940 0.821850 -10.170358 0.000000 0.000000 0.000000 0.000000 0.000000 -0.000000 -7.018860 -9.042032 -7.857641 5.162284 1.516754 -2.875567 -2.000143 -0.601394 10.618805 -0.000000 -0.000000 0.000000 0.000000 0.000001 -0.000001 0.170725 0.317395 0.047142 0.511368 0.555631 -0.149995 0.508119 0.557001 -0.156049 -12.567540 -1.447527 2.637433 10.199607 3.163036 -2.584840 0.000000 -0.000000 -0.000000 0.000000 -0.000000 -0.000000 0.000000 -0.000000 -0.000000 0.000000 -0.000000 0.000000 -0.000000 0.000000 0.000000 0.000000 -0.000000 0.000000 -0.000000 0.000000 0.000000 0.000000 -0.000000 -0.000000 0.000000 -0.000000 -0.000000 1.604993 -11.385830 -9.553342 4.329753 -15.662809 -64.423048 0.000001 -12.874964 0.000021 1.692998 -1.937948 -8.457197 0.699771 -6.020123 19.223912 19.074654 26.512429 -1.026330 -0.000002 -0.000000 0.000001 0.460240 4.491404 -23.662369 0.882896 3.094540 -31.840768 0.000002 0.000001 -0.000007 2.486451 8.732152 -25.419673 1.496288 3.911567 -41.853989 0.000002 -0.000004 0.000002 3.090048 8.505057 -34.940376 1.098172 3.416398 -35.630256 -0.000001 0.000004 -0.000004 3.606297 12.758700 -45.581974 0.673752 2.729601 -27.725816 -0.000002 -0.000000 0.000001 -0.000002 -0.000000 0.000000 2.087501 14.855919 10.815228 -4.515515 3.403583 66.314607 -0.000006 7.533705 -0.000012 10.827184 0.054053 8.057278 -13.495586 -11.552030 -5.371144 13.666561 -20.582673 -6.820335 -0.000001 -0.000001 0.000000 0.268679 -3.255053 18.903576 0.589432 -2.269659 29.112623 -0.000001 0.000002 0.000002 -0.699952 -1.222495 21.259392 0.924038 -2.786369 36.687576 0.000000 -0.000001 0.000003 -0.941534 -2.664838 38.529504 0.358945 -1.794579 22.619777 -0.000001 -0.000001 0.000001 -2.272286 -1.120383 39.404816 0.612232 -2.310107 29.683350 -0.000001 0.000002 -0.000003 -0.000000 0.000000 0.000001 0.000000 -0.000000 0.000000 0.000000 -0.000000 0.000000 0.000000 -0.000000 -0.000000 0.000000 -0.000000 -0.000000 0.000000 -0.000000 0.000000 0.000000 -0.000000 0.000000 0.000000 -0.000000 -0.000000 0.000000 -0.000000 -0.000000 0.000000 -0.000000 0.000000 0.000000 -0.000000 0.000000 -0.000000 -0.000000 0.000000 -0.000000 -0.000000 0.000000 -0.000000 -0.000000 0.000000 
-0.004917 70.385056 1.289336 3.896392 -3.450880 -0.140926 0.000000 -0.000000 -0.000000 -8.371091 12.520468 9.306737 10.561101 4.737356 2.171851 -5.435765 0.787742 -9.968047 -0.000000 -0.000000 -0.000000 0.000000 0.000001 0.000000 -7.241059 -9.067043 -8.010908 5.339030 1.349778 -2.894392 -2.021868 -0.631612 10.684588 -0.000000 0.000001 0.000000 0.000000 0.000001 0.000000 0.177634 0.255142 -0.090112 0.522724 0.481148 -0.246970 0.519669 0.482469 -0.253369 -12.570453 -1.493393 2.655375 10.186425 2.988167 -2.569573 -0.000000 -0.000000 -0.000000 -0.000000 -0.000000 -0.000000 -0.000000 -0.000000 -0.000000 -0.000000 -0.000000 -0.000000 -0.000000 0.000000 -0.000000 -0.000000 -0.000000 -0.000000 -0.000000 0.000000 -0.000000 -0.000000 -0.000000 -0.000000 -0.000000 -0.000000 -0.000000 1.592807 -11.570164 -9.530934 4.323956 -15.723425 -64.408131 0.000004 -13.006400 -0.000004 1.715749 -1.969382 -8.475923 0.699771 -6.020120 19.223909 19.142218 26.685491 -1.119167 0.000002 -0.000000 -0.000004 0.523351 4.568952 -24.053078 0.882892 3.094543 -31.840757 0.000000 -0.000003 -0.000000 2.477808 8.667063 -25.701954 1.495607 3.910804 -41.843829 -0.000000 -0.000001 0.000006 2.928191 8.316714 -34.519612 1.099659 3.418468 -35.655257 0.000001 0.000002 0.000000 3.569670 12.770598 -45.231104 0.674520 2.731061 -27.741879 -0.000000 0.000002 0.000003 0.000003 0.000000 -0.000001 2.106014 14.663383 10.874460 -4.619668 3.583835 66.385047 0.000002 7.254832 -0.000012 10.654868 0.332100 8.062519 -13.495584 -11.552031 -5.371142 13.781398 -20.730953 -6.718410 0.000000 0.000001 0.000001 0.275229 -3.270860 18.779294 0.607640 -2.302020 29.569166 -0.000001 0.000002 0.000006 -0.699389 -1.221017 21.239004 0.924037 -2.786369 36.687593 -0.000001 0.000000 0.000004 -0.929388 -2.688071 38.617647 0.359848 -1.796756 22.648535 0.000001 -0.000003 -0.000000 -2.272274 -1.120380 39.404816 0.612230 -2.310104 29.683340 -0.000001 0.000000 0.000002 0.000001 0.000001 -0.000001 -0.000000 0.000000 0.000000 0.000000 0.000000 -0.000000 -0.000000 0.000000 -0.000000 -0.000000 0.000000 -0.000000 -0.000000 0.000000 0.000000 0.000000 0.000000 -0.000000 -0.000000 0.000000 -0.000000 -0.000000 0.000000 -0.000000 -0.000000 0.000000 0.000000 0.000000 0.000000 -0.000000 0.000000 -0.000000 -0.000000 0.000000 -0.000000 -0.000000 0.000000 -0.000000 -0.000000 
0.117716 70.361267 1.173881 3.934667 -3.240745 -0.105306 0.000000 0.000000 -0.000000 -9.123575 12.231175 9.223786 11.804689 4.709631 2.212185 -6.117651 0.788768 -9.782334 0.000000 -0.000000 0.000000 -0.000000 0.000000 -0.000001 -7.713246 -9.033947 -8.203558 5.982166 1.222964 -2.952664 -2.166408 -0.686796 10.818670 0.000000 0.000001 -0.000000 -0.000000 -0.000001 0.000001 0.234281 0.202200 -0.218889 0.592182 0.418395 -0.347830 0.589255 0.419837 -0.354522 -12.587794 -1.552909 2.686548 10.105722 2.776948 -2.470516 0.000000 -0.000000 0.000000 0.000000 -0.000000 0.000000 0.000000 -0.000000 0.000000 0.000000 -0.000000 0.000000 0.000000 0.000000 0.000000 0.000000 -0.000000 0.000000 0.000000 0.000000 0.000000 0.000000 -0.000000 0.000000 0.000000 -0.000000 0.000000 1.576480 -11.784033 -9.525971 4.209084 -15.822120 -64.408260 0.000005 -13.159060 -0.000023 1.755020 -2.036779 -8.434134 0.699770 -6.020121 19.223914 19.260777 26.983953 -1.280903 -0.000001 0.000002 0.000002 0.612143 4.671795 -24.535534 0.882898 3.094553 -31.840764 0.000003 -0.000002 -0.000004 2.483773 8.625210 -26.033211 1.497648 3.913080 -41.873871 0.000002 0.000004 -0.000004 2.800161 8.187403 -33.934463 1.112442 3.436166 -35.868841 -0.000001 0.000004 -0.000001 3.457701 12.717326 -44.817403 0.683189 2.747453 -27.923367 0.000002 0.000003 -0.000002 0.000001 -0.000000 0.000000 2.123572 14.504376 10.903051 -4.745572 3.782937 66.419737 -0.000001 7.075717 -0.000004 10.426366 0.595576 8.060652 -13.495584 -11.552032 -5.371142 13.746497 -20.686025 -6.749361 0.000002 -0.000001 0.000002 0.274519 -3.268575 18.772389 0.589263 -2.269351 29.108477 -0.000002 -0.000000 0.000000 -0.706442 -1.203737 21.246507 0.924039 -2.786386 36.687565 0.000000 -0.000001 0.000003 -0.941265 -2.665679 38.535217 0.357922 -1.792132 22.587181 0.000002 0.000000 -0.000004 -2.272284 -1.120385 39.404826 0.612235 -2.310101 29.683340 0.000002 -0.000001 0.000000 0.000001 -0.000000 -0.000000 0.000001 0.000000 0.000000 0.000001 0.000000 0.000000 0.000001 0.000000 0.000000 0.000001 0.000000 0.000000 0.000001 0.000000 0.000000 0.000001 0.000000 0.000000 0.000001 0.000000 0.000000 0.000001 0.000000 0.000000 0.000001 0.000000 0.000000 0.000001 0.000000 0.000000 0.000000 0.000000 -0.000000 0.000000 0.000000 -0.000000 0.000000 0.000000 -0.000000 
0.329536 70.326164 1.019754 3.897232 -3.185842 -0.082735 0.000000 0.000000 -0.000000 -10.020551 11.856764 9.075628 13.533538 4.906793 2.296601 -7.079569 0.791552 -9.515323 0.000000 0.000000 0.000000 0.000000 0.000001 0.000000 -8.350534 -8.968093 -8.478820 6.903586 1.251540 -3.033107 -2.301973 -0.752571 11.032541 -0.000000 0.000001 -0.000000 0.000000 0.000000 0.000000 0.357570 0.178131 -0.360375 0.740721 0.389165 -0.457660 0.737875 0.390886 -0.464430 -12.602348 -1.633415 2.743030 9.915392 2.526152 -2.320993 -0.000000 -0.000000 -0.000000 -0.000000 -0.000000 -0.000000 -0.000000 -0.000000 -0.000000 -0.000000 -0.000000 -0.000000 -0.000000 -0.000000 -0.000000 -0.000000 -0.000000 -0.000000 -0.000000 -0.000000 -0.000000 -0.000000 -0.000000 -0.000000 -0.000000 -0.000000 -0.000000 1.565997 -11.996750 -9.469172 3.991482 -15.992774 -64.476576 -0.000003 -13.384926 0.000001 1.917499 -2.083179 -8.205129 0.699773 -6.020124 19.223912 19.341327 27.183144 -1.390023 -0.000000 -0.000001 0.000001 0.701618 4.767178 -24.920695 0.882892 3.094540 -31.840771 0.000000 -0.000000 0.000003 2.513161 8.674277 -26.094908 1.502234 3.918179 -41.941070 0.000002 0.000004 0.000003 2.777850 8.173961 -33.731050 1.101529 3.421066 -35.686451 0.000001 0.000003 0.000000 3.464579 12.747553 -44.644425 0.691081 2.762286 -28.087369 0.000001 0.000001 0.000001 0.000003 0.000000 0.000000 2.122146 14.512342 10.893985 -4.864638 4.012649 66.368122 -0.000001 6.930345 0.000026 10.168346 0.899337 8.055037 -13.495585 -11.552033 -5.371143 13.706320 -20.634160 -6.785047 -0.000001 0.000000 0.000001 0.274972 -3.271056 18.815001 0.588178 -2.267430 29.081330 0.000000 0.000000 0.000002 -0.700738 -1.222080 21.270836 0.924050 -2.786402 36.688040 0.000003 -0.000003 -0.000001 -0.944156 -2.658621 38.497501 0.358903 -1.794469 22.618255 -0.000000 -0.000001 0.000004 -2.272282 -1.120389 39.404813 0.612233 -2.310102 29.683346 0.000001 0.000000 -0.000003 0.000002 -0.000001 0.000000 -0.000000 0.000000 0.000000 -0.000000 0.000000 -0.000000 -0.000000 0.000000 0.000000 -0.000000 0.000000 0.000000 -0.000000 0.000000 0.000000 -0.000000 0.000000 -0.000000 -0.000000 0.000000 0.000000 -0.000000 0.000000 0.000000 -0.000000 0.000000 0.000000 -0.000000 0.000000 -0.000000 0.000000 0.000000 -0.000000 0.000000 0.000000 -0.000000 0.000000 0.000000 -0.000000 
